<svg width="23" height="15" viewBox="0 0 23 15" fill="none" xmlns="http://www.w3.org/2000/svg">
<path d="M1.74939 6.54529C1.1971 6.54529 0.74939 6.993 0.74939 7.54529C0.74939 8.09757 1.1971 8.54529 1.74939 8.54529V6.54529ZM22.4565 8.25239C22.847 7.86187 22.847 7.22871 22.4565 6.83818L16.0925 0.47422C15.702 0.0836959 15.0688 0.0836959 14.6783 0.47422C14.2878 0.864745 14.2878 1.49791 14.6783 1.88843L20.3352 7.54529L14.6783 13.2021C14.2878 13.5927 14.2878 14.2258 14.6783 14.6164C15.0688 15.0069 15.702 15.0069 16.0925 14.6164L22.4565 8.25239ZM1.74939 8.54529H21.7494V6.54529H1.74939V8.54529Z" fill="#B2BAFF"/>
</svg>
